# xmcd
# Copyright (C) 1995-1998 Ti Kan
#
# Track frame offsets:
#       150
#       19875
#       43350
#       52875
#       64650
#       80250
#       95747
#       114497
#       130847
#       145772
#       164822
#       186782
#       207999
#       223449
#       235524
#       249249
#       269274
#
# Disc length: 3827 seconds
#
# Revision: 16
# Processed by: cddbd v1.5.2PL0 Copyright (c) Steve Scherf et al.
# Submitted via: CD-Transfer v1.0
#
DISCID=fa0ef111
DTITLE=Young Will - N/A
DYEAR=09
DGENRE=
TTITLE0=Halo
TTITLE1=Drifter
TTITLE2=Judgement
TTITLE3=Baba O'riley (Uk Radio Edit)
TTITLE4=My Love
TTITLE5=Tonight
TTITLE6=Brooklyn (We Go Hard) (Edit) (Mick Boogie Remix)
TTITLE7=If This Isn't Love
TTITLE8=How Do You Sleep
TTITLE9=Everybody Knows
TTITLE10=Thinking Of You (Live Acoustic Version)
TTITLE11=Day 'n' Nite
TTITLE12=Keep This Fire Burning (Freemasons Edit)
TTITLE13=Hit The Bricks (Radio Edit)
TTITLE14=Love That Girl
TTITLE15=What It Is
TTITLE16=I Won't Give Up
EXTD=
EXTT0=
EXTT1=
EXTT2=
EXTT3=
EXTT4=
EXTT5=
EXTT6=
EXTT7=
EXTT8=
EXTT9=
EXTT10=
EXTT11=
EXTT12=
EXTT13=
EXTT14=
EXTT15=
EXTT16=
PLAYORDER=
